PathFileType	4	(X/Y/Z)	RBDS011\RBDS011runT45.trc
DataRate	CameraRate	NumFrames	NumMarkers	Units	OrigDataRate	OrigDataStartFrame	OrigNumFrames
150.000000	150.000000	6	33	mm	150.000000	0	4500
Frame#	Time	L.ASIS			L.Heel.Bottom			L.Heel.Lateral			L.Heel.Top			L.Iliac.Crest			L.MT1			L.MT5			L.PSIS			L.Shank.Bottom.Lateral			L.Shank.Bottom.Medial			L.Shank.Top.Lateral			L.Shank.Top.Medial			L.Thigh.Bottom.Lateral			L.Thigh.Bottom.Medial			L.Thigh.Top.Lateral			L.Thigh.Top.Medial			R.ASIS			R.ASY			R.Heel.Bottom			R.Heel.Lateral			R.Heel.Top			R.Iliac.Crest			R.MT1			R.MT5			R.PSIS			R.Shank.Bottom.Lateral			R.Shank.Bottom.Medial			R.Shank.Top.Lateral			R.Shank.Top.Medial			R.Thigh.Bottom.Lateral			R.Thigh.Bottom.Medial			R.Thigh.Top.Lateral			R.Thigh.Top.Medial			
		X1	Y1	Z1	X2	Y2	Z2	X3	Y3	Z3	X4	Y4	Z4	X5	Y5	Z5	X6	Y6	Z6	X7	Y7	Z7	X8	Y8	Z8	X9	Y9	Z9	X10	Y10	Z10	X11	Y11	Z11	X12	Y12	Z12	X13	Y13	Z13	X14	Y14	Z14	X15	Y15	Z15	X16	Y16	Z16	X17	Y17	Z17	X18	Y18	Z18	X19	Y19	Z19	X20	Y20	Z20	X21	Y21	Z21	X22	Y22	Z22	X23	Y23	Z23	X24	Y24	Z24	X25	Y25	Z25	X26	Y26	Z26	X27	Y27	Z27	X28	Y28	Z28	X29	Y29	Z29	X30	Y30	Z30	X31	Y31	Z31	X32	Y32	Z32	X33	Y33	Z33	

1	0	2416.806920433316	970.3340533886056	900.8261386020829	2204.008576293674	298.9471216544355	969.0834360074067	2230.010574377535	290.894329604033	929.0711238346994	2246.7328950357	323.7476408046467	970.3940860618453	2348.489557367308	1044.264138218776	866.7058298929124	2363.56679736738	138.7188480834325	1000.380456690896	2336.54554557466	158.8638444172073	889.342094203519	2249.811739543885	1003.62151635346	976.8683917445032	2352.860793648115	348.0105681090399	907.3993817322379	2328.789466059842	376.528078576243	948.5828883478132	2402.809654978832	409.4177778488313	894.8813839966156	2379.897567917121	437.8933616276453	935.2498392632111	2555.214852276468	666.2066940454698	855.27803462878	2512.728100540235	621.0572879176722	893.5215520811198	2468.849935183676	733.5418911785725	844.0885441582964	2428.440840699837	691.401987935914	880.2466358101087	2420.727297797325	960.5241329688287	1148.201657653105	2043.081913056859	100.426548541078	1044.664823979027	1854.847850492243	124.9301642628188	1040.101507909736	1883.986341826284	127.8518592636497	1082.472770698997	1884.1776418803	165.1828339008458	1043.979569833564	2372.732850590403	1019.862554812834	1181.236264960602	2055.7566831327	40.64541794907129	988.6769901122428	2027.693375240169	44.58895602024805	1107.377312898211	2253.768446145417	1005.003933739485	1078.654924587438	1982.165705760987	215.0489526321149	1099.511932926773	1960.042329069011	246.6326747967661	1065.732526914033	2032.541955257811	278.788151015682	1123.837600491685	2005.063041482192	309.3870792308178	1089.300334202311	2245.177915341264	591.9387226846859	1172.509339661065	2186.979340021979	609.4140010259518	1130.928775034327	2260.233084073499	698.5924077681898	1191.808962198157	2205.473251430874	716.1811221844032	1154.507094346138	
2	0.006666666666666667	2419.459416343498	976.883822554546	900.5605351932892	2232.507847218198	271.8382426757677	971.712174583873	2258.495906891777	266.0915179001585	931.4512766378966	2272.251470439229	300.2073147216267	972.6494102823569	2350.7863829599	1051.14540937821	866.9615397144452	2405.031566475316	128.4699672392787	1001.04056721907	2375.131376170574	145.4996823260907	890.5165018400234	2252.682182435055	1009.983788686729	976.8797615944899	2374.463592176344	334.1849440884482	909.2747975485339	2349.065993905534	360.1575025133513	951.055335199563	2418.633230318833	399.3421322651079	896.8926120388592	2394.534160670491	425.2168771774153	937.9176699369857	2557.105018428985	672.0005685612898	858.1782950954936	2513.672231144079	626.7629645093659	895.1263729280842	2471.235333034981	739.8062107607203	845.7278152708329	2430.016929060865	697.7374405610218	880.8838814114731	2422.768883911589	962.096793053844	1147.163969622374	2022.526743192944	101.8854051502731	1047.03903615036	1837.859127598233	141.3971563644447	1045.774437153616	1867.988527856979	141.3939404649542	1087.355490717519	1870.253282148143	178.8109328004783	1049.198051549165	2380.713877336817	1022.568057542133	1179.926978957726	2028.591498542502	42.36165846273643	990.2822309133467	2003.179927133704	46.11173177295318	1109.511028962987	2256.908407316193	1010.424197985708	1079.346154263876	1966.411460153319	224.1167855717637	1103.056826819475	1944.140445477533	255.1232172226804	1068.864011369984	2016.620423766013	288.4781036518675	1126.374939426634	1988.86244187082	318.4644523695181	1091.546766133042	2233.445210242853	601.4749637842842	1172.081411604638	2176.704558158416	621.3050867081764	1129.915631724401	2253.422810345951	706.9488936203003	1191.225360377202	2200.035277753201	726.6926206422991	1153.198471662625	
3	0.01333333333333333	2422.036819949381	983.2595233992449	900.3789653307729	2261.250643556981	245.1870466674913	974.2413223912708	2287.223785446664	241.7280189437634	933.7604446479357	2297.952085855497	277.0315467083202	974.8181281837982	2353.100774443309	1057.944784313377	867.2550584514174	2446.191859443575	118.8803113002965	1001.947606902509	2413.693948950688	132.7277645728183	891.8738741934018	2255.49049120759	1016.291542002595	976.9098393576339	2396.124926973916	320.5757501571254	911.1177948754156	2369.400868095954	344.007068079577	953.4360097533272	2434.485907938426	389.3127737023222	898.8228751791314	2409.185982957001	412.6020302771427	940.4421493442381	2558.719059400607	677.4342664362327	860.9607948165434	2514.320188384646	632.1391205995368	896.6242049335629	2473.401031454176	745.7748100789645	847.3165500290139	2431.355328599076	703.7999808006606	881.4632536893707	2424.709476408043	963.6889704770559	1146.205616174863	2002.083667262926	103.677485337691	1049.421769564967	1821.404529370698	158.0652469937383	1051.553189042923	1852.440893636724	155.1199637676529	1092.33233538164	1856.782379157769	192.5492498958553	1054.487590312659	2388.388869390196	1025.27968779001	1178.665536779541	2001.568966488611	44.52428394751534	991.961576030521	1978.820724776835	48.03829535185261	1111.644427054554	2259.940520478986	1015.828816437403	1080.021466482728	1951.052954536429	233.2022785385679	1106.637066203938	1928.622331149105	263.6714635072302	1072.067025969019	2001.170802530886	298.1190020395787	1128.926061190988	1973.126589454802	327.5404620696444	1093.85258482497	2222.134226262991	610.7876494526898	1171.566885154218	2166.848822453341	632.8901634990098	1128.802616713491	2246.862278228873	715.1058671947392	1190.561930599215	2194.854196965503	736.935747648477	1151.793865660593	
4	0.02	2424.470546745268	989.2986690401477	900.3655574128322	2290.516205849128	219.4671710757168	976.5932145771358	2316.472036979731	218.2674399409684	935.9478853732656	2324.052071726971	254.604519162903	976.8332603825489	2355.462887729825	1064.588059731493	867.617474994306	2486.791979340209	110.6379932996827	1003.341229705998	2452.251337967708	121.1759884748697	893.5995870012123	2258.176615420167	1022.504068065429	976.9654103389441	2417.923654448176	307.4281630292094	912.9142986962217	2389.882576789154	328.3242928116687	955.6630072964404	2450.41226063818	379.4096449005722	900.6151266291005	2423.896016456217	400.1426118848194	942.7165235005588	2559.797306780092	682.1867674342965	863.4918046609959	2514.405664476121	636.9003490872908	897.9122003145892	2475.135819543543	751.1825643617935	848.7826496593863	2432.236203364414	709.3513993213899	881.9245442699354	2426.457950015385	965.3228356309329	1145.400687966628	1981.814553144721	106.1292148863898	1051.827821768756	1805.896798853011	175.1330012152989	1057.51319289886	1837.677999175414	169.2171233733127	1097.473518345588	1844.107974110009	206.5214722367803	1059.895932230968	2395.4638172912	1028.022424654825	1177.495252347374	1974.793665383691	47.55791615355947	993.7849270424728	1954.70895871168	50.75914135021986	1113.786606652619	2262.766604970338	1021.215392447394	1080.658058011956	1936.395021133438	242.3509974815898	1110.277637312152	1913.79094812137	272.364016743788	1075.396415767741	1986.576905030963	307.6872850804514	1131.499375851115	1958.242289443289	336.6411154156791	1096.264921923465	2211.646933559836	619.6522304328481	1170.89065353313	2157.795396696728	643.8727307764701	1127.516752056767	2240.7922231454	722.8646362444479	1189.758287372998	2190.160713612491	746.6493004136468	1150.236072337401	
5	0.02666666666666667	2426.699942119277	994.8606939382755	900.5840499466008	2320.467624420643	195.1281022696177	978.7161129752559	2346.403251840862	196.1449356573239	937.9823340077746	2350.675233726579	233.2960555705811	978.6453830860473	2357.890170612942	1070.997758347448	868.0687180424154	2526.54018334629	104.3157248747411	1005.409416391087	2490.73306352233	111.3782582352006	895.8439466827717	2260.68755224346	1028.574603515091	977.0439743341004	2439.878054913488	294.9776274778637	914.652101361832	2410.53863349617	313.3487006980163	957.6864675771022	2466.41381272339	369.7298375130834	902.2235507395948	2438.667685186218	387.9480051601047	944.6559775129548	2560.131683817066	686.000358219148	865.6390315893869	2513.727199693419	640.8242350666048	898.9056049103947	2476.266401928149	755.8115548172968	850.047051796855	2432.489632735525	714.2021020477023	882.2217991600968	2427.944343606682	967.0141858797758	1144.805233916362	1961.782518193353	109.5220485170345	1054.273189681831	1791.641415531285	192.7429697874608	1063.662905591194	1823.935925341147	183.8312576309688	1102.79518632898	1832.473482919443	220.8256720402876	1065.423086231311	2401.687730678941	1030.825535047064	1176.456814819523	1948.391300056216	51.81773984810815	995.8054969638963	1930.92803811543	54.61510818366019	1115.949487245981	2265.304758270225	1026.569602739233	1081.23198592206	1922.664610532202	251.6203478675578	1113.979820082972	1899.887217721571	281.2938144295586	1078.871703607791	1973.137770940516	317.1723996867841	1134.090878151041	1944.525991517149	345.7988390602223	1098.80253862213	2202.335254856122	627.8560830488865	1170.002009507284	2149.867384592716	653.9814757023196	1126.020479331323	2235.428494139941	730.0378945302007	1188.781995912024	2186.14512408808	755.5937955492301	1148.510564902391	
6	0.03333333333333333	2428.674376672927	999.8349710563466	901.0701080733143	2351.113617486759	172.5767414852382	980.5937087295576	2377.025791180522	175.7469971051536	939.8587457219259	2377.819901159932	213.4473144100781	980.229729653523	2360.381121907923	1077.091940557523	868.6141896029566	2565.102627260599	100.3277697809948	1008.266034648751	2528.952682770974	103.7348270670205	898.7059345473275	2262.979221218661	1034.446507320257	977.133172622077	2461.923325979726	283.4396323525051	916.3221149846175	2431.315031259476	299.3024471981765	959.4746626183729	2482.431779112824	360.3871698116056	903.6189503729058	2453.450067725726	376.1427377605003	946.207966628464	2559.578805439091	688.6996267814934	867.2800116543817	2512.163233864509	643.7692130574749	899.5468929928116	2476.66716831853	759.5059082289583	851.0279208726789	2432.007189454775	718.2251930078642	882.3293855995045	2429.127664323664	968.7690666030688	1144.451477361636	1942.05589029931	114.0888196732889	1056.774432790924	1778.813083883802	210.9780607166823	1069.927420666901	1811.333124237382	199.0680605932222	1108.245558580394	1822.002287449881	235.5382765813841	1071.008685654894	2406.868958597804	1033.718563264311	1175.586351134158	1922.514518447345	57.57713681418157	998.0555158011027	1907.555316738812	59.89340200050376	1118.148917265388	2267.495274680609	1031.859011965182	1081.719296680777	1909.995826749008	261.0900913179917	1117.714338731322	1887.078522272131	290.5682167931259	1082.467215412624	1961.049064582571	326.5869574707868	1136.68000308169	1932.208886955077	355.0599372494544	1101.447502989238	2194.486931792776	635.2022179903073	1168.883136721791	2143.311727630061	662.9769125323758	1124.32188484744	2230.954461726896	736.453155242405	1187.636709801455	2182.947083400746	763.5571795659552	1146.655755960295	
